<svg width="107" height="20" viewBox="0 0 107 20" fill="none" xmlns="http://www.w3.org/2000/svg">
<g id="Google_Maps_Logo_2020 1">
<g id="Group">
<path id="Vector" d="M3.96289 13.8529C4.46009 14.4703 4.96646 15.2466 5.23146 15.7155C5.55418 16.3251 5.68799 16.7367 5.92806 17.4739C6.06843 17.8777 6.20224 18.0002 6.48297 18.0002C6.78995 18.0002 6.93032 17.7944 7.03789 17.4739C7.26222 16.7823 7.43538 16.2561 7.70956 15.7546C8.76692 13.7748 10.4907 12.368 11.4615 10.4403C11.4615 10.4403 12.1004 9.26283 12.1004 7.61384C12.1004 6.07686 11.4707 5.00879 11.4707 5.00879L3.96683 13.866L3.96289 13.8529Z" fill="#34A853"/>
<path id="Vector_2" d="M1.41739 10.232C2.02215 11.5996 3.17528 12.798 3.9624 13.853L8.13411 8.9425C8.13411 8.9425 7.54509 9.70838 6.48117 9.70838C5.29525 9.70838 4.32972 8.77056 4.32972 7.58527C4.32972 6.76989 4.81904 6.20459 4.81904 6.20459C1.74929 6.65787 1.91983 7.3964 1.4082 10.2294L1.41739 10.232Z" fill="#FBBC04"/>
<path id="Vector_3" d="M8.18719 2.25659C9.57776 2.70075 10.7584 3.63727 11.4668 5.00492L8.13472 8.95156C8.13472 8.95156 8.62404 8.38366 8.62404 7.57089C8.62404 6.36084 7.59554 5.44778 6.48571 5.44778C5.43228 5.44778 4.83276 6.20454 4.83276 6.20454C5.08858 5.62622 7.73198 2.45327 8.19113 2.25789L8.18719 2.25659Z" fill="#4285F4"/>
<path id="Vector_4" d="M2.17896 3.99286C3.00805 3.01336 4.46159 2 6.46874 2C7.4382 2 8.17416 2.25529 8.17416 2.25529L4.82891 6.20194C4.60327 6.08042 2.40197 4.37841 2.17896 3.98765V3.99286Z" fill="#1A73E8"/>
<path id="Vector_5" d="M1.41814 10.2319C1.41814 10.2319 0.871094 9.15343 0.871094 7.60083C0.871094 6.12897 1.45094 4.83947 2.18295 4.00586L4.83291 6.22015L1.42208 10.2319H1.41814Z" fill="#EA4335"/>
</g>
<g id="Group_2">
<path id="Vector_6" fill-rule="evenodd" clip-rule="evenodd" d="M62.5721 11.8128L66.1696 10.3289C65.9697 9.82847 65.3788 9.48336 64.675 9.48336C63.7756 9.47905 62.5287 10.2685 62.5721 11.8128ZM66.7952 13.2493L68.1681 14.1552C67.725 14.8066 66.6605 15.9282 64.814 15.9282C62.5287 15.9282 60.8777 14.1725 60.8777 11.9336C60.8777 9.5567 62.5417 7.93901 64.6185 7.93901C66.5258 8.00372 67.7119 9.22453 68.2463 10.9328L62.8589 13.1415C63.2716 13.9439 63.9103 14.3537 64.8097 14.3537C65.7047 14.3537 66.3303 13.9137 66.7865 13.2493M58.0536 15.6867H59.8219V3.95303H58.0536V15.6867ZM55.1687 11.9466C55.1687 10.5403 54.2216 9.50925 53.0181 9.50925C51.8016 9.50925 50.7762 10.5403 50.7762 11.9466C50.7762 13.3399 51.7972 14.3537 53.0181 14.3537C54.2259 14.3537 55.1687 13.3399 55.1687 11.9466ZM56.7241 8.18059V15.3415C56.7241 18.2922 54.9732 19.5044 52.9008 19.5044C50.95 19.5044 49.7769 18.2016 49.3338 17.1447L50.8718 16.5106C51.1455 17.162 51.819 17.9342 52.9008 17.9342C54.8776 17.7111 55.0514 16.4416 55.0514 15.0137H54.9863C54.5909 15.4968 53.8262 15.9239 52.866 15.9239C50.8544 15.9239 49.0079 14.1854 49.0079 11.9422C49.0079 9.68611 50.8501 7.93038 52.866 7.93038C53.8262 7.93038 54.5909 8.35314 54.9863 8.82335H55.0471V8.17196C55.0471 8.16764 56.7241 8.16764 56.7241 8.16764V8.18059ZM37.4336 11.9336C37.4336 10.4971 36.3996 9.51356 35.2048 9.51356C34.0056 9.51356 32.9759 10.4971 32.9759 11.9336C32.9759 13.3572 34.01 14.3537 35.2048 14.3537C36.3996 14.3537 37.4336 13.3529 37.4336 11.9336ZM39.1715 11.9336C39.1715 14.2329 37.3902 15.9282 35.2048 15.9282C33.0194 15.9282 31.238 14.2329 31.238 11.9336C31.238 9.61709 33.0194 7.93901 35.2048 7.93901C37.3902 7.93901 39.1715 9.61709 39.1715 11.9336ZM46.3403 11.9336C46.3403 10.4971 45.3062 9.51356 44.1114 9.51356C42.9123 9.51356 41.8826 10.4971 41.8826 11.9336C41.8826 13.3572 42.9166 14.3537 44.1114 14.3537C45.3062 14.3537 46.3403 13.3529 46.3403 11.9336ZM48.0782 11.9336C48.0782 14.2329 46.2968 15.9282 44.1114 15.9282C41.926 15.9282 40.1447 14.2329 40.1447 11.9336C40.1447 9.61709 41.926 7.93901 44.1114 7.93901C46.2968 7.93901 48.0782 9.61709 48.0782 11.9336ZM24.4429 15.9282C21.0019 15.9282 18.0996 13.1415 18.0996 9.71631C18.0996 6.29544 20.9975 3.50439 24.4429 3.50439C26.3502 3.50439 27.7058 4.24637 28.7268 5.21698L27.5233 6.41192C26.7934 5.73033 25.8028 5.19973 24.4429 5.19973C21.9273 5.19973 19.9678 7.21429 19.9678 9.68611C19.9678 12.1838 21.936 14.1725 24.4429 14.1725C26.0722 14.1725 27.0019 13.5211 27.5972 12.9301C28.0838 12.447 28.4053 11.7481 28.5269 10.7948H24.4429V9.09943H30.1779C30.2387 9.4014 30.2692 9.76376 30.2692 10.1563C30.2692 11.4289 29.9172 13.0034 28.792 14.1207C27.6971 15.2639 26.2937 15.8721 24.4472 15.8721" fill="#212328"/>
<path id="Vector_7" d="M72.3975 15.5976V5.1665H73.7542L77.4028 11.5198H77.4578L81.1064 5.1665H82.4632V15.5976H81.1069L81.1619 7.66051H81.1069L77.825 13.3767H77.0366L73.7547 7.66051H73.6997C73.7998 10.3006 73.7547 12.958 73.7547 15.5976H72.3975ZM86.6985 15.7796C85.9285 15.7796 85.3051 15.5612 84.7917 15.1243C84.2783 14.6874 84.0217 14.1048 84.0217 13.3944C84.0217 12.6117 84.3333 12.0109 84.9384 11.574C85.5434 11.1371 86.2952 10.9187 87.1752 10.9187C87.9636 10.9187 88.6237 11.0643 89.1187 11.3556C89.1055 9.84141 88.0516 9.4259 87.2302 9.4259C86.4547 9.46248 85.7818 9.7845 85.5068 10.4635L84.2783 9.93562C84.4434 9.51692 84.7734 9.11599 85.2684 8.75233C85.7635 8.38868 86.4052 8.2062 87.2119 8.2062C88.1286 8.2062 88.8987 8.47927 89.5037 9.00719C90.1088 9.53512 90.4205 10.2997 90.4205 11.2645V15.579H89.137V14.5959C88.5375 15.3423 87.7271 15.7628 86.6985 15.7792V15.7796ZM89.1187 12.4665C88.3285 11.8693 86.6802 11.7947 85.9101 12.4118C85.3051 12.9944 85.2409 13.7754 85.8735 14.2323C87.4026 15.2062 89.1737 13.6898 89.1187 12.4665ZM95.6825 15.7796C95.1325 15.7796 94.6375 15.6704 94.2158 15.4338C93.7941 15.1971 93.464 14.9058 93.244 14.56H93.1707L93.2257 15.543V18.6923H91.8872V8.40688H93.1707V9.38992H93.2257C93.4457 9.04404 93.7574 8.75277 94.1974 8.51611C94.6375 8.27945 95.1325 8.17022 95.6642 8.17022C96.5993 8.17022 97.3877 8.53431 98.066 9.26249C98.7444 9.99066 99.074 10.9009 99.074 11.9749C99.074 13.049 98.744 13.9592 98.066 14.6874C97.406 15.4156 96.5993 15.7796 95.6825 15.7796ZM95.4625 14.5418C96.0859 14.5418 96.6176 14.3051 97.076 13.8318C97.5343 13.3585 97.7544 12.7395 97.7544 11.9567C97.7544 11.1739 97.5343 10.555 97.076 10.0817C96.6176 9.60837 96.0859 9.37171 95.4625 9.37171C94.8208 9.37171 94.2891 9.60837 93.8491 10.0635C93.409 10.5368 93.189 11.1557 93.189 11.9385C93.189 12.7213 93.409 13.3585 93.8491 13.8136C94.2891 14.3233 94.8208 14.5418 95.4625 14.5418ZM103.016 15.7796C102.21 15.7796 101.55 15.5794 101.036 15.1971C100.505 14.8148 100.138 14.3233 99.8812 13.7408L101.091 13.2492C101.476 14.1413 102.118 14.5964 103.035 14.5964C103.456 14.5964 103.805 14.5058 104.061 14.3233C104.337 14.1413 104.465 13.9046 104.465 13.5951C104.465 13.1218 104.135 12.8123 103.475 12.6485L102.026 12.3026C101.568 12.1934 101.128 11.9567 100.725 11.6473C100.321 11.3378 100.101 10.8827 100.101 10.3365C100.101 9.69939 100.376 9.18967 100.945 8.80738C101.513 8.40688 102.173 8.22484 102.943 8.22484C103.585 8.22484 104.153 8.37047 104.648 8.66174C105.143 8.95301 105.51 9.35351 105.712 9.89964L104.538 10.373C104.282 9.7358 103.731 9.42633 102.888 9.42633C102.485 9.42633 102.155 9.51692 101.88 9.68119C101.606 9.84546 101.477 10.0635 101.477 10.3547C101.477 10.7552 101.788 11.0465 102.43 11.1921L103.86 11.5198C104.539 11.6837 105.034 11.9385 105.364 12.3208C105.694 12.7031 105.84 13.1218 105.84 13.5951C105.84 14.2323 105.584 14.7784 105.052 15.1971C104.539 15.5612 103.86 15.7796 103.017 15.7796H103.016Z" fill="#212328"/>
</g>
</g>
</svg>
