<svg version="1.1" xmlns="http://www.w3.org/2000/svg" xmlns:xlink="http://www.w3.org/1999/xlink" width="21px" height="21px" viewBox="0,0,255.99536,255.99536"><g fill="#ffffff" fill-rule="nonzero" stroke="none" stroke-width="1" stroke-linecap="butt" stroke-linejoin="miter" stroke-miterlimit="10" stroke-dasharray="" stroke-dashoffset="0" font-family="none" font-weight="none" font-size="none" text-anchor="none" style="mix-blend-mode: normal"><g transform="translate(-0.02125,-0.14984) scale(0.5,0.5)"><g transform="translate(0,512) scale(0.1,-0.1)"><path d="M4549,4731c-63,-32 -1018,-526 -2124,-1096c-1105,-570 -2016,-1044 -2022,-1053c-18,-23 -16,-56 5,-75c12,-11 286,-62 932,-172c503,-87 916,-158 916,-159c1,0 94,-408 208,-906c172,-755 210,-908 227,-922c27,-23 41,-23 68,0c22,18 1971,4351 1971,4381c0,10 -6,24 -12,33c-27,34 -52,30 -169,-31z"></path></g></g></g></svg>
