<svg width="113" height="20" viewBox="0 0 113 20" fill="none" xmlns="http://www.w3.org/2000/svg">
<mask id="mask0_861_2558" style="mask-type:luminance" maskUnits="userSpaceOnUse" x="0" y="2" width="113" height="16">
<path d="M112.502 2H0.501953V18H112.502V2Z" fill="white"/>
</mask>
<g mask="url(#mask0_861_2558)">
<path fill-rule="evenodd" clip-rule="evenodd" d="M16.1651 9.82985C16.1651 8.2799 15.7054 6.76477 14.8441 5.47611C13.9829 4.18745 12.7589 3.18316 11.3268 2.59028C9.89472 1.9974 8.31898 1.84257 6.79889 2.14536C5.27881 2.44815 3.88267 3.19497 2.78709 4.29135C1.69151 5.38772 0.945703 6.7844 0.644011 8.30471C0.342319 9.82501 0.49829 11.4006 1.09221 12.8323C1.68613 14.264 2.6913 15.4873 3.98058 16.3476C5.26986 17.2079 6.78533 17.6665 8.33528 17.6653C9.36398 17.6653 10.3826 17.4626 11.3329 17.0688C12.2832 16.675 13.1466 16.0977 13.8738 15.37C14.6009 14.6424 15.1775 13.7786 15.5707 12.828C15.9638 11.8773 16.1658 10.8586 16.1651 9.82985Z" fill="#FC3F1D"/>
<path fill-rule="evenodd" clip-rule="evenodd" d="M9.3789 6.43752H8.64131C7.3023 6.43752 6.62145 7.12405 6.62145 8.10561C6.62145 9.24036 7.10939 9.73398 8.08528 10.4205L8.9023 10.9879L6.57039 14.517H4.81152L6.92783 11.385C5.72499 10.5056 5.03847 9.68292 5.03847 8.25313C5.03847 6.45455 6.27535 5.25171 8.65833 5.25171H11.0073V14.517H9.3789V6.43752Z" fill="white"/>
<path d="M34.4988 2.00073L18.4988 8.50299L25.5003 11.0033L28.0006 18.0007L34.4988 2.00073Z" fill="url(#paint0_linear_861_2558)"/>
<path d="M34.5008 2.00073L25.2527 11.2529L28.0025 18.0007L34.5008 2.00073Z" fill="#FFCC00"/>
<path d="M25.0011 11.5017L28.0006 17.9999L26.998 9.50069L18.4988 8.5022L25.0011 11.5017Z" fill="#ECA704"/>
<path d="M38.4988 4.00073V15.7792H40.6362V10.6596H44.6217V15.7792H46.752V4.00073H44.6217V9.0661H40.6362V4.00073H38.4988ZM55.1463 9.96797C55.1463 7.89978 54.0529 7.11997 51.8309 7.11997C50.4412 7.11997 49.3479 7.54039 48.713 7.89978V9.57467C49.2773 9.16782 50.5118 8.72705 51.584 8.72705C52.5927 8.72705 53.0512 9.0661 53.0512 9.98153V10.4562H52.7126C49.5031 10.4562 48.0781 11.4733 48.0781 13.2025C48.0781 14.9316 49.1715 15.9013 50.7939 15.9013C52.0284 15.9013 52.5574 15.508 52.9595 15.1011H53.0512C53.0653 15.3249 53.1359 15.6097 53.2064 15.7792H55.2521C55.1815 15.0876 55.1463 14.3891 55.1463 13.6975V9.96797ZM53.0512 13.7449C52.7832 14.1179 52.2894 14.423 51.5487 14.423C50.667 14.423 50.2296 13.9484 50.2296 13.2228C50.2296 12.2531 50.9491 11.9005 52.7479 11.9005H53.0512V13.7449ZM60.5073 15.7792C62.5882 15.7792 63.8227 14.9316 63.8227 13.3042C63.8227 12.1853 63.1173 11.5412 61.9393 11.3377C62.8916 11.0868 63.4912 10.4426 63.4912 9.42549C63.4912 7.96759 62.4824 7.25559 60.5426 7.25559H56.8392V15.7792H60.5073ZM60.2957 8.7474C61.0575 8.7474 61.4808 9.0661 61.4808 9.73063C61.4808 10.3206 61.0223 10.68 60.2252 10.68H58.8849V8.7474H60.2957ZM60.331 12.1514C61.2339 12.1514 61.7065 12.4565 61.7065 13.1685C61.7065 13.9687 61.1774 14.2874 60.331 14.2874H58.8849V12.1514H60.331ZM65.2335 7.25559V15.7792H67.1028L70.3124 10.5104V15.7792H72.3439V7.25559H70.4746L67.2651 12.5244V7.25559H65.2335ZM74.1074 7.25559V15.7792H76.2025V8.84911H79.4473V7.25559H74.1074ZM86.7835 9.96797C86.7835 7.89978 85.6901 7.11997 83.4681 7.11997C82.0785 7.11997 80.9851 7.54039 80.3502 7.89978V9.57467C80.9146 9.16782 82.149 8.72705 83.2212 8.72705C84.2299 8.72705 84.6885 9.0661 84.6885 9.98153V10.4562H84.3499C81.1403 10.4562 79.7154 11.4733 79.7154 13.2025C79.7154 14.9316 80.8088 15.9013 82.4312 15.9013C83.6656 15.9013 84.1947 15.508 84.5968 15.1011H84.6885C84.7026 15.3249 84.7731 15.6097 84.8436 15.7792H86.8893C86.8188 15.0876 86.7835 14.3891 86.7835 13.6975V9.96797ZM84.6885 13.7449C84.4204 14.1179 83.9266 14.423 83.186 14.423C82.3042 14.423 81.8669 13.9484 81.8669 13.2228C81.8669 12.2531 82.5864 11.9005 84.3851 11.9005H84.6885V13.7449ZM94.7193 8.84911V7.25559H87.6864V8.84911H90.1553V15.7792H92.2504V8.84911H94.7193ZM98.9869 7.08606C96.6803 7.08606 95.072 8.65924 95.072 11.5276C95.072 14.3756 96.6803 15.9487 98.9869 15.9487C101.301 15.9487 102.902 14.3756 102.902 11.5072C102.902 8.65924 101.301 7.08606 98.9869 7.08606ZM98.9869 14.3552C97.823 14.3552 97.2446 13.494 97.2446 11.5276C97.2446 9.54077 97.823 8.67959 98.9869 8.67959C100.151 8.67959 100.737 9.54077 100.737 11.5072C100.737 13.494 100.151 14.3552 98.9869 14.3552ZM106.253 7.25559H104.313V18.2407H106.415V14.7824C106.944 15.5419 107.72 15.9487 108.616 15.9487C110.662 15.9487 112.072 14.3756 112.072 11.5072C112.072 8.65924 110.697 7.08606 108.722 7.08606C107.734 7.08606 106.923 7.52683 106.359 8.3541L106.253 7.25559ZM108.087 14.3552C106.979 14.3552 106.415 13.494 106.415 11.5276C106.415 9.54077 107.015 8.67959 108.193 8.67959C109.342 8.67959 109.907 9.54077 109.907 11.5072C109.907 13.494 109.307 14.3552 108.087 14.3552Z" fill="#212328"/>
</g>
<defs>
<linearGradient id="paint0_linear_861_2558" x1="18.4989" y1="18.0004" x2="34.4995" y2="1.99975" gradientUnits="userSpaceOnUse">
<stop stop-color="#FFCC00"/>
<stop offset="1" stop-color="#FFE992"/>
</linearGradient>
</defs>
</svg>
