<svg width="25" height="24" viewBox="0 0 25 24" fill="none" xmlns="http://www.w3.org/2000/svg">
<path d="M7.625 6C7.625 5.70163 7.74353 5.41548 7.95451 5.2045C8.16548 4.99353 8.45163 4.875 8.75 4.875H20.75C21.0484 4.875 21.3345 4.99353 21.5455 5.2045C21.7565 5.41548 21.875 5.70163 21.875 6C21.875 6.29837 21.7565 6.58452 21.5455 6.7955C21.3345 7.00647 21.0484 7.125 20.75 7.125H8.75C8.45163 7.125 8.16548 7.00647 7.95451 6.7955C7.74353 6.58452 7.625 6.29837 7.625 6ZM20.75 10.875H8.75C8.45163 10.875 8.16548 10.9935 7.95451 11.2045C7.74353 11.4155 7.625 11.7016 7.625 12C7.625 12.2984 7.74353 12.5845 7.95451 12.7955C8.16548 13.0065 8.45163 13.125 8.75 13.125H20.75C21.0484 13.125 21.3345 13.0065 21.5455 12.7955C21.7565 12.5845 21.875 12.2984 21.875 12C21.875 11.7016 21.7565 11.4155 21.5455 11.2045C21.3345 10.9935 21.0484 10.875 20.75 10.875ZM20.75 16.875H8.75C8.45163 16.875 8.16548 16.9935 7.95451 17.2045C7.74353 17.4155 7.625 17.7016 7.625 18C7.625 18.2984 7.74353 18.5845 7.95451 18.7955C8.16548 19.0065 8.45163 19.125 8.75 19.125H20.75C21.0484 19.125 21.3345 19.0065 21.5455 18.7955C21.7565 18.5845 21.875 18.2984 21.875 18C21.875 17.7016 21.7565 17.4155 21.5455 17.2045C21.3345 16.9935 21.0484 16.875 20.75 16.875ZM4.625 10.5C4.32833 10.5 4.03832 10.588 3.79165 10.7528C3.54497 10.9176 3.35271 11.1519 3.23918 11.426C3.12565 11.7001 3.09594 12.0017 3.15382 12.2926C3.2117 12.5836 3.35456 12.8509 3.56434 13.0607C3.77412 13.2704 4.04139 13.4133 4.33237 13.4712C4.62334 13.5291 4.92494 13.4994 5.19903 13.3858C5.47312 13.2723 5.70738 13.08 5.87221 12.8334C6.03703 12.5867 6.125 12.2967 6.125 12C6.125 11.6022 5.96697 11.2206 5.68566 10.9393C5.40436 10.658 5.02283 10.5 4.625 10.5ZM4.625 4.5C4.32833 4.5 4.03832 4.58797 3.79165 4.7528C3.54497 4.91762 3.35271 5.15189 3.23918 5.42597C3.12565 5.70006 3.09594 6.00166 3.15382 6.29264C3.2117 6.58361 3.35456 6.85088 3.56434 7.06066C3.77412 7.27044 4.04139 7.4133 4.33237 7.47118C4.62334 7.52906 4.92494 7.49935 5.19903 7.38582C5.47312 7.27229 5.70738 7.08003 5.87221 6.83336C6.03703 6.58668 6.125 6.29667 6.125 6C6.125 5.60218 5.96697 5.22064 5.68566 4.93934C5.40436 4.65804 5.02283 4.5 4.625 4.5ZM4.625 16.5C4.32833 16.5 4.03832 16.588 3.79165 16.7528C3.54497 16.9176 3.35271 17.1519 3.23918 17.426C3.12565 17.7001 3.09594 18.0017 3.15382 18.2926C3.2117 18.5836 3.35456 18.8509 3.56434 19.0607C3.77412 19.2704 4.04139 19.4133 4.33237 19.4712C4.62334 19.5291 4.92494 19.4994 5.19903 19.3858C5.47312 19.2723 5.70738 19.08 5.87221 18.8334C6.03703 18.5867 6.125 18.2967 6.125 18C6.125 17.6022 5.96697 17.2206 5.68566 16.9393C5.40436 16.658 5.02283 16.5 4.625 16.5Z" fill="#8285A5"/>
</svg>
