<svg width="24" height="24" viewBox="0 0 24 24" fill="none" xmlns="http://www.w3.org/2000/svg">
<g clip-path="url(#clip0_401_2763)">
<mask id="mask0_401_2763" style="mask-type:luminance" maskUnits="userSpaceOnUse" x="0" y="0" width="24" height="24">
<path d="M0 9.15527e-05H24V24.0001H0V9.15527e-05Z" fill="white"/>
</mask>
<g mask="url(#mask0_401_2763)">
<path d="M22 12.0001H23M12 2.00009V1.00009M12 23.0001V22.0001M20 20.0001L19 19.0001M20 4.00009L19 5.00009M4 20.0001L5 19.0001M4 4.00009L5 5.00009M1 12.0001H2M9.952 9.62309L11.511 6.31809C11.553 6.22346 11.6216 6.14305 11.7084 6.08661C11.7952 6.03017 11.8965 6.00013 12 6.00013C12.1035 6.00013 12.2048 6.03017 12.2916 6.08661C12.3784 6.14305 12.447 6.22346 12.489 6.31809L14.048 9.62309L17.533 10.1561C17.98 10.2241 18.158 10.8001 17.835 11.1301L15.313 13.7001L15.908 17.3311C15.985 17.7981 15.517 18.1531 15.117 17.9331L12 16.2181L8.883 17.9331C8.483 18.1531 8.015 17.7981 8.092 17.3311L8.687 13.7011L6.165 11.1301C5.842 10.8001 6.02 10.2241 6.467 10.1561L9.952 9.62309Z" stroke="#8285A5" stroke-width="2" stroke-linecap="round" stroke-linejoin="round"/>
</g>
</g>
<defs>
<clipPath id="clip0_401_2763">
<rect width="24" height="24" fill="white"/>
</clipPath>
</defs>
</svg>
